<svg width="52" height="42" viewBox="0 0 52 42" fill="none" xmlns="http://www.w3.org/2000/svg">
<path fill-rule="evenodd" clip-rule="evenodd" d="M25 14H8.5C7.55719 14 7.08579 14 6.79289 14.2929C6.5 14.5858 6.5 15.0572 6.5 16V20.75C6.5 21.6928 6.5 22.1642 6.79289 22.4571C7.08579 22.75 7.55719 22.75 8.5 22.75H13V23.5H25V14ZM13 25.5V34.75C13 35.6928 13 36.1642 13.2929 36.4571C13.5858 36.75 14.0572 36.75 15 36.75H25V25.5H13ZM27 36.75H37C37.9428 36.75 38.4142 36.75 38.7071 36.4571C39 36.1642 39 35.6928 39 34.75V25.5H27V36.75ZM39 23.5V22.75H43.5C44.4428 22.75 44.9142 22.75 45.2071 22.4571C45.5 22.1642 45.5 21.6928 45.5 20.75V16C45.5 15.0572 45.5 14.5858 45.2071 14.2929C44.9142 14 44.4428 14 43.5 14H27V23.5H39Z" fill="white"/>
<path d="M41.1667 8.96724V6.10968C41.1667 4.79363 39.9175 3.83631 38.6467 4.17845L33.6608 5.52083C32.181 5.91921 30.8009 6.62237 29.6088 7.58524L26 10.5V12.25H34.4022C34.5777 12.25 34.7526 12.2269 34.9221 12.1812L39.6866 10.8985C40.5599 10.6634 41.1667 9.87157 41.1667 8.96724Z" fill="white"/>
<path d="M10.8333 8.96724V6.10968C10.8333 4.79363 12.0825 3.83631 13.3533 4.17845L18.3392 5.52083C19.819 5.91921 21.1991 6.62237 22.3912 7.58524L26 10.5V12.25H17.5978C17.4223 12.25 17.2474 12.2269 17.0779 12.1812L12.3134 10.8985C11.4401 10.6634 10.8333 9.87157 10.8333 8.96724Z" fill="white"/>
</svg>
